<?xml version="1.0" encoding="UTF-8"?>
<!DOCTYPE svg PUBLIC "-//W3C//DTD SVG 1.1//EN" "http://www.w3.org/Graphics/SVG/1.1/DTD/svg11.dtd">
<!-- Creator: CorelDRAW 2021 (64-Bit) -->
<svg xmlns="http://www.w3.org/2000/svg" xml:space="preserve" width="11.6929in" height="8.26772in" version="1.1" style="shape-rendering:geometricPrecision; text-rendering:geometricPrecision; image-rendering:optimizeQuality; fill-rule:evenodd; clip-rule:evenodd"
viewBox="0 0 11692.91 8267.72"
 xmlns:xlink="http://www.w3.org/1999/xlink"
 xmlns:xodm="http://www.corel.com/coreldraw/odm/2003">
 <defs>
  <style type="text/css">
   <![CDATA[
    .fil0 {fill:#FDBFCA}
   ]]>
  </style>
 </defs>
 <g id="Layer_x0020_1">
  <metadata id="CorelCorpID_0Corel-Layer"/>
  <path class="fil0" d="M4118.32 2517.05l3455.85 0c11.85,0 21.52,9.68 21.52,21.52l0 698.39 -1460.06 0 -0.01 -0 -0 0 -18.1 0 -149.59 145.32 -1871.13 1621.5 0 -2465.21c0,-11.85 9.68,-21.52 21.52,-21.52zm1079.75 461.68c254.22,0 460.3,206.08 460.3,460.3 0,254.22 -206.08,460.3 -460.3,460.3 -254.22,0 -460.3,-206.08 -460.3,-460.3 0,-254.22 206.09,-460.3 460.3,-460.3zm2397.63 1178.83l0 1577.2c0,11.85 -9.68,21.52 -21.52,21.52l-2940 0 1844.85 -1598.72 1116.68 0z"/>
 </g>
</svg>
